<?xml version="1.0" ?><svg viewBox="0 0 512 512" xmlns="http://www.w3.org/2000/svg"><title/><g id="Solid"><polygon points="36.944 464 32 473.889 32 480 480 480 480 473.889 475.056 464 36.944 464"/><path d="M466.027,224,279.79028,123.12177A24.07994,24.07994,0,0,0,280,120V104.94434a22.35032,22.35032,0,0,0-12.42188-20.09961A6.43728,6.43728,0,0,1,264,79.05566V70.6239A24.03771,24.03771,0,0,0,280,48V16H232V48a24.03762,24.03762,0,0,0,16,22.6239v8.43176a22.35032,22.35032,0,0,0,12.42188,20.09961A6.43728,6.43728,0,0,1,264,104.94434V120a8,8,0,0,1-16,0v-8H232v8a24.07994,24.07994,0,0,0,.20972,3.12177L45.973,224H32v12.68652L35.31348,240h441.373L480,236.68652V224ZM248,32h16V48a8,8,0,0,1-16,0Zm-8.52344,105.38153a23.93516,23.93516,0,0,0,33.04688,0L432.43457,224H79.56549Z"/><path d="M40,256V448H472V256ZM72,432H56V272H72Zm32,0H88V280h16Zm32,0H120V288h16Zm32,0H152V296h16Zm32,0H184V312h16Zm32,0H216V328h16Zm32,0H248V344h16Zm32,0H280V360h16Zm32,0H312V376h16Zm32,0H344V384h16Zm32,0H376V392h16Zm32,0H408V400h16Zm32,0H440V400h16Zm-26.34326-42.34326-11.31348-11.31348,10.84644-10.84643c-68.63062-3.52881-131.94532-25.48926-174.41138-44.17408-50.11377-22.05029-81.97852-43.81494-83.31055-44.73046l9.0625-13.186c.31641.21729,32.20069,21.97021,81.02686,43.41846,42.14612,18.514,105.415,40.3656,173.37256,42.9226l-10.085-20.16967,14.31054-7.15528,18.57862,37.15723Z"/></g></svg>