<?xml version="1.0" ?><svg enable-background="new 0 0 52 52" id="Layer_1" version="1.1" viewBox="0 0 52 52" xml:space="preserve" xmlns="http://www.w3.org/2000/svg" xmlns:xlink="http://www.w3.org/1999/xlink"><g><path d="M47.9373856,13.2449951c-0.0900269,0.3699951-0.3699951,0.6600342-0.7399902,0.7600098   c-1.6600342,0.4000244-2.7700195,1.1500244-3.4100342,2.2799683c-1.3399658,2.4000244-0.3899536,6.25,0.6000366,9.3300171   c2.75,8.6099854-1.0200195,17.7900391-8.7600098,21.3500366c-3.9500122,1.8099976-9.2299805,2.789978-9.4500122,2.8299561   c-0.0599976,0.0100098-0.1199951,0.0200195-0.1799927,0.0200195s-0.1199951-0.0100098-0.1799927-0.0200195   c-0.2200317-0.039978-5.5-1.0199585-9.4400024-2.8299561C8.627387,43.4050293,4.8573675,34.2249756,7.6073675,25.6149902   c0.9899902-3.0800171,1.9500122-6.9299927,0.6000366-9.3300171c-0.6400146-1.1299438-1.75-1.8799438-3.4000244-2.2799683   c-0.3699951-0.0999756-0.6599731-0.3900146-0.7399902-0.7600098c-0.0900266-0.3699951,0.0499878-0.7600098,0.3499756-1   c4.6199951-3.7000122,4.0200195-6.710022,3.9899902-6.8300171c-0.1099854-0.5,0.1600342-1,0.6400146-1.1699829   c0.4800415-0.1699829,1.0100098,0.039978,1.2300415,0.5c1.4400024,2.9899902,5.8099985,3.4400024,8.289979,3.4400024   c2.7000122,0,5.6599731-3.9799805,6.5700073-5.5200195c0.1799927-0.2999878,0.5100098-0.4799805,0.8599854-0.4799805   s0.6799927,0.1799927,0.8599854,0.4799805c0.9100342,1.5400391,3.8800049,5.5200195,6.5700073,5.5200195   c2.4799805,0,6.8500366-0.4500122,8.2900391-3.4400024c0.2299805-0.460022,0.7599487-0.6799927,1.25-0.5   c0.4799805,0.1699829,0.75,0.6900024,0.6199951,1.1799927c-0.0200195,0.1199951-0.6300049,3.1199951,3.9899902,6.8200073   C47.877388,12.4849854,48.0174026,12.875,47.9373856,13.2449951z"/></g></svg>