<?xml version="1.0" ?><!DOCTYPE svg  PUBLIC '-//W3C//DTD SVG 1.1//EN'  'http://www.w3.org/Graphics/SVG/1.1/DTD/svg11.dtd'><svg height="512px" style="enable-background:new 0 0 512 512;" version="1.1" viewBox="0 0 512 512" width="512px" xml:space="preserve" xmlns="http://www.w3.org/2000/svg" xmlns:xlink="http://www.w3.org/1999/xlink"><g id="C_-_180_x2C__capital_x2C__money_x2C__venture_x2C__business"><g><path d="M260.824,345.054v25.479c3.281-0.713,5.955-2.261,8.009-4.661c2.076-2.401,3.106-5.224,3.106-8.489    c0-2.888-0.87-5.397-2.616-7.484C267.605,347.788,264.77,346.188,260.824,345.054z"/><path d="M184.304,149.927h11.517c0.001,0,0.001,0,0.002,0h120.351c0.002,0,0.006,0,0.009,0h11.512    c7.604,0,13.79-6.149,13.79-13.709c0-7.556-6.187-13.704-13.79-13.704h-8.771H193.075h-8.771c-7.603,0-13.789,6.148-13.789,13.704    C170.515,143.777,176.701,149.927,184.304,149.927z"/><path d="M245.242,305.716c-1.498,2.08-2.236,4.371-2.236,6.882c0,2.29,0.672,4.422,2.039,6.4c1.358,1.956,3.458,3.55,6.271,4.749    v-22.526C248.75,302.137,246.74,303.62,245.242,305.716z"/><path d="M255.999,243.931c-52.609,0-95.41,42.593-95.41,94.946c0,52.354,42.801,94.947,95.41,94.947    c52.614,0,95.418-42.593,95.418-94.947C351.417,286.524,308.613,243.931,255.999,243.931z M280.819,374.892    c-4.794,5.375-11.452,8.706-19.995,10.037v12.134h-9.509v-11.995c-7.506-0.917-13.594-3.666-18.308-8.314    c-4.706-4.641-7.696-11.216-9.011-19.676l17.007-2c0.687,3.463,2.003,6.437,3.925,8.946s4.041,4.313,6.388,5.447v-27.219    c-8.507-2.421-14.733-6.081-18.68-10.99c-3.977-4.932-5.965-10.89-5.965-17.908c0-7.107,2.251-13.087,6.739-17.908    c4.488-4.838,10.451-7.617,17.905-8.351V280.7h9.509v6.395c6.963,0.821,12.496,3.178,16.625,7.062    c4.107,3.893,6.738,9.087,7.879,15.596l-16.604,2.132c-1.031-5.106-3.662-8.568-7.9-10.396v25.395    c10.509,2.8,17.671,6.467,21.471,10.932c3.816,4.489,5.715,10.235,5.715,17.263C288.01,362.919,285.62,369.516,280.819,374.892z"/><path d="M318.671,160.741c-11.436,24.092-36.042,39.968-62.672,39.968c-26.628,0-51.235-15.876-62.671-39.968    c-57.482,25.348-94.37,81.769-94.37,145.003v158.229h314.083V305.744C413.041,242.51,376.153,186.09,318.671,160.741z     M255.999,443.195c-57.776,0-104.781-46.798-104.781-104.318S198.223,234.56,255.999,234.56    c57.78,0,104.789,46.796,104.789,104.317S313.779,443.195,255.999,443.195z"/><path d="M314.239,48.08l-55.384,34.617c-1.51,0.944-3.428,0.949-4.945,0.013L197.76,48.027v65.115h116.479V48.08z"/><path d="M255.999,191.338c22.062,0,42.525-12.629,52.905-32.041H203.095C213.476,178.709,233.938,191.338,255.999,191.338z"/></g></g><g id="Layer_1"/></svg>